<?xml version="1.0" standalone="no"?>
<!DOCTYPE svg PUBLIC "-//W3C//DTD SVG 20010904//EN"
 "http://www.w3.org/TR/2001/REC-SVG-20010904/DTD/svg10.dtd">
<svg version="1.0" xmlns="http://www.w3.org/2000/svg"
 width="770.000000pt" height="770.000000pt" viewBox="0 0 770.000000 770.000000"
 preserveAspectRatio="xMidYMid meet">
<metadata>
Created by potrace 1.14, written by Peter Selinger 2001-2017
</metadata>
<g transform="translate(0.000000,770.000000) scale(0.100000,-0.100000)"
fill="#000000" stroke="none">
<path d="M6768 6510 c-15 -5 -47 -11 -70 -14 -57 -8 -283 -45 -396 -65 -31 -6
-70 -13 -87 -15 -27 -5 -122 -20 -185 -30 -14 -3 -25 -5 -25 -6 0 -1 -16 -3
-35 -5 -69 -8 -100 -14 -107 -18 -4 -3 -30 -7 -58 -11 -27 -3 -60 -8 -72 -10
-11 -3 -43 -8 -70 -12 -26 -3 -57 -8 -68 -10 -11 -2 -33 -7 -50 -9 -56 -10
-140 -25 -160 -29 -11 -2 -42 -7 -70 -10 -27 -4 -69 -11 -92 -17 -24 -5 -46
-8 -50 -7 -5 1 -19 -2 -33 -5 -14 -4 -43 -9 -65 -12 -22 -3 -92 -15 -155 -26
-63 -11 -131 -22 -150 -25 -19 -2 -57 -9 -85 -14 -27 -5 -70 -12 -95 -15 -25
-3 -52 -8 -61 -11 -10 -3 -30 -6 -45 -9 -16 -2 -45 -6 -64 -9 -73 -13 -146
-26 -180 -31 -19 -3 -46 -8 -60 -10 -14 -3 -38 -7 -55 -10 -70 -10 -85 -12
-185 -30 -19 -4 -44 -8 -55 -10 -42 -6 -102 -16 -125 -20 -34 -7 -79 -15 -115
-19 -16 -2 -41 -7 -55 -10 -14 -3 -41 -8 -60 -11 -19 -2 -87 -13 -150 -24 -63
-11 -131 -22 -150 -25 -19 -3 -89 -15 -155 -26 -66 -12 -131 -23 -145 -25 -14
-1 -41 -6 -60 -9 -41 -8 -131 -23 -180 -31 -37 -6 -72 -12 -120 -20 -16 -3
-45 -7 -62 -10 -18 -3 -44 -7 -58 -10 -14 -3 -38 -7 -55 -9 -32 -5 -196 -33
-230 -40 -11 -2 -42 -7 -68 -10 -27 -4 -59 -9 -70 -12 -12 -2 -51 -9 -87 -14
-36 -6 -76 -13 -90 -16 -14 -3 -41 -7 -60 -10 -19 -2 -44 -6 -55 -8 -27 -5
-83 -15 -120 -21 -16 -3 -55 -9 -85 -14 -30 -6 -71 -12 -90 -15 -19 -3 -57
-10 -85 -15 -27 -5 -70 -12 -95 -16 -25 -3 -52 -8 -60 -10 -8 -3 -35 -7 -60
-10 -25 -3 -52 -7 -60 -10 -14 -4 -68 -13 -115 -19 -11 -2 -33 -6 -50 -9 -16
-4 -48 -9 -70 -12 -22 -4 -49 -8 -60 -10 -11 -1 -38 -6 -60 -9 -22 -4 -51 -9
-65 -12 -44 -8 -74 -13 -110 -18 -19 -3 -46 -7 -59 -10 -12 -3 -42 -8 -65 -10
-22 -3 -52 -8 -66 -11 -38 -8 -71 -14 -115 -20 -148 -21 -193 -42 -226 -106
-21 -42 -22 -79 -5 -164 4 -16 11 -55 17 -85 19 -101 19 -101 54 -271 2 -9 6
-32 9 -50 9 -51 15 -85 37 -190 11 -53 21 -110 24 -127 2 -17 6 -39 9 -49 3
-10 8 -34 11 -53 3 -19 13 -69 22 -110 8 -41 17 -86 20 -100 2 -14 15 -79 28
-145 13 -66 26 -131 29 -145 2 -14 16 -86 31 -160 15 -74 28 -146 30 -160 1
-14 5 -34 8 -45 4 -11 9 -34 12 -52 5 -29 71 -364 81 -408 2 -11 7 -40 10 -65
4 -25 10 -56 15 -69 5 -13 8 -26 5 -28 -2 -3 0 -19 5 -36 6 -18 12 -43 14 -57
2 -14 13 -70 24 -125 11 -54 17 -103 15 -107 -3 -4 0 -8 6 -8 6 0 9 -3 7 -7
-3 -5 1 -37 9 -73 8 -36 17 -80 20 -99 3 -18 8 -43 10 -55 3 -11 9 -41 14 -66
4 -25 10 -54 13 -65 2 -11 8 -38 12 -60 9 -50 8 -47 45 -235 17 -85 32 -164
34 -175 2 -11 6 -33 10 -50 12 -55 17 -80 22 -120 19 -135 111 -197 249 -166
22 5 56 12 75 15 19 3 44 7 55 10 11 2 43 7 70 11 28 5 52 9 55 10 3 0 27 4
53 9 27 4 59 9 70 12 12 2 37 7 56 10 18 3 43 8 55 10 11 2 36 7 55 10 18 3
43 8 55 10 11 2 35 6 51 9 17 3 44 7 60 10 17 3 46 8 65 11 19 3 42 7 50 9 8
3 33 7 55 10 22 3 51 7 65 10 42 8 253 46 283 51 60 9 87 14 197 33 139 25
159 29 230 41 30 6 64 12 75 14 27 5 105 18 130 22 11 2 31 5 45 8 13 3 40 8
60 11 20 3 45 7 57 9 11 3 36 7 54 10 19 3 66 11 106 19 l72 14 11 -69 c7 -38
10 -71 7 -74 -2 -3 -31 -9 -63 -14 -33 -6 -68 -12 -79 -14 -11 -2 -40 -7 -65
-11 -25 -4 -52 -9 -60 -10 -86 -16 -330 -57 -352 -60 -15 -2 -35 -6 -45 -9
-10 -3 -35 -8 -55 -10 -71 -9 -108 -18 -108 -26 0 -5 -9 -11 -19 -15 -11 -3
-27 -22 -36 -41 -35 -74 -13 -145 57 -184 44 -24 62 -24 228 6 78 14 320 56
349 60 32 5 44 8 101 18 14 3 42 8 63 11 86 12 113 16 127 20 14 4 37 8 113
20 17 3 55 10 82 15 28 5 66 12 85 14 19 3 45 7 56 10 12 2 37 7 55 10 19 3
43 7 54 10 11 2 42 7 68 10 27 4 59 10 70 12 26 6 60 11 104 18 18 2 40 7 50
10 10 3 38 8 63 11 25 3 52 8 60 10 8 2 33 6 55 10 44 6 133 21 180 30 46 9
66 12 115 19 25 4 81 13 125 21 44 8 94 17 110 20 49 9 327 56 360 61 17 2 41
7 55 9 14 3 34 7 45 9 22 4 318 55 350 60 83 14 113 19 130 23 24 5 47 9 100
17 66 10 125 20 183 31 15 3 43 8 62 11 66 10 75 12 101 22 32 13 79 67 80 93
1 10 2 25 3 32 9 59 -64 139 -129 141 -10 0 -109 -14 -135 -19 -36 -7 -87 -17
-110 -20 -14 -2 -68 -11 -120 -20 -52 -9 -108 -18 -125 -21 -16 -3 -38 -7 -47
-10 -9 -3 -32 -6 -50 -8 -19 -2 -43 -6 -54 -9 -10 -3 -41 -8 -69 -12 -27 -3
-67 -10 -87 -15 -21 -4 -38 -7 -39 -6 -9 18 -27 141 -21 148 4 3 25 9 47 12
22 3 51 8 65 11 14 3 41 7 60 10 19 3 71 11 115 19 44 9 96 18 115 21 19 3 58
10 85 15 28 5 66 12 85 15 19 3 58 10 85 15 28 5 66 12 85 14 19 3 69 12 110
20 41 8 93 17 115 20 23 4 52 9 65 11 46 9 485 86 520 91 19 3 42 7 50 9 8 2
29 6 45 9 17 3 163 28 325 56 162 29 309 54 325 57 68 10 102 24 132 53 52 51
61 106 38 220 -7 35 -14 69 -24 125 -6 33 -13 71 -16 85 -14 69 -28 147 -30
166 -2 11 -8 45 -14 75 -15 71 -25 123 -36 189 -5 28 -34 185 -40 213 -11 60
-16 84 -27 142 -6 33 -12 69 -14 80 -1 11 -8 45 -14 75 -6 30 -13 71 -16 90
-3 19 -7 41 -10 49 -2 8 -7 30 -10 50 -2 20 -7 47 -10 61 -3 14 -8 36 -10 50
-3 14 -9 48 -15 76 -5 28 -12 64 -15 80 -8 49 -24 138 -28 159 -2 11 -18 94
-35 185 -16 91 -33 177 -36 193 -12 63 -14 74 -19 111 -4 21 -8 41 -10 45 -2
3 -7 27 -10 53 -4 26 -8 53 -11 60 -2 7 -7 31 -10 52 -3 21 -7 48 -10 60 -3
12 -7 33 -9 49 -3 15 -7 35 -10 45 -3 9 -7 33 -10 52 -8 52 -24 141 -31 170
-3 14 -8 41 -11 60 -8 46 -42 228 -49 260 -3 14 -8 41 -11 60 -3 19 -11 67
-19 105 -7 39 -16 86 -19 106 -3 20 -8 42 -10 50 -3 8 -8 32 -11 54 -17 124
-37 171 -87 206 -35 25 -118 34 -170 19z m-43 -401 c3 -19 8 -47 12 -64 3 -16
8 -40 9 -52 6 -33 12 -65 18 -93 3 -14 8 -38 11 -55 2 -16 7 -43 10 -60 5 -28
37 -200 50 -270 9 -50 14 -78 25 -130 6 -27 12 -63 15 -80 2 -16 6 -42 9 -57
18 -88 42 -218 62 -338 9 -49 9 -53 17 -75 3 -11 8 -38 11 -60 2 -22 7 -51 10
-65 3 -14 8 -38 11 -55 26 -139 36 -194 40 -215 3 -14 8 -41 11 -60 3 -19 10
-55 16 -80 5 -25 11 -58 13 -73 2 -15 9 -54 15 -85 6 -31 13 -68 16 -82 2 -14
7 -36 10 -50 5 -23 8 -38 18 -105 2 -11 6 -33 9 -50 4 -16 9 -41 11 -55 3 -14
12 -61 20 -105 9 -44 18 -96 21 -115 2 -19 11 -69 20 -110 8 -41 17 -88 20
-105 2 -16 7 -43 10 -60 3 -16 15 -77 27 -135 11 -58 22 -114 23 -125 2 -11 8
-47 14 -80 6 -33 14 -75 17 -94 10 -58 13 -71 19 -81 3 -6 3 -10 -2 -10 -4 0
-44 -6 -88 -14 -44 -8 -96 -17 -115 -21 -19 -3 -125 -22 -235 -41 -110 -20
-209 -37 -220 -39 -93 -15 -153 -25 -222 -39 -11 -3 -43 -8 -70 -12 -26 -3
-57 -8 -68 -10 -11 -3 -35 -7 -54 -10 -18 -3 -43 -8 -55 -10 -11 -2 -37 -7
-56 -10 -19 -3 -42 -7 -50 -9 -8 -2 -28 -6 -45 -9 -16 -3 -48 -8 -70 -11 -22
-4 -47 -8 -55 -9 -21 -4 -101 -18 -125 -22 -11 -3 -36 -7 -55 -10 -55 -8 -73
-12 -100 -18 -14 -3 -41 -8 -60 -11 -19 -2 -48 -7 -65 -10 -16 -3 -55 -10 -85
-15 -30 -6 -66 -12 -80 -15 -14 -3 -41 -7 -60 -10 -19 -3 -46 -7 -60 -10 -28
-6 -57 -11 -145 -26 -33 -5 -80 -14 -105 -19 -25 -5 -58 -11 -75 -14 -40 -5
-89 -14 -215 -37 -58 -11 -123 -22 -144 -25 -22 -2 -58 -9 -80 -14 -23 -5 -61
-11 -86 -15 -25 -3 -53 -8 -63 -11 -10 -3 -30 -7 -45 -9 -15 -2 -70 -11 -122
-20 -131 -22 -132 -22 -160 -29 -14 -3 -41 -8 -60 -11 -19 -2 -48 -7 -65 -10
-58 -11 -147 -26 -175 -30 -16 -2 -37 -6 -47 -9 -10 -3 -34 -7 -53 -10 -19 -3
-46 -8 -60 -11 -13 -2 -40 -7 -60 -10 -20 -3 -47 -8 -60 -10 -14 -3 -41 -8
-60 -11 -19 -3 -46 -7 -60 -10 -14 -2 -90 -16 -170 -30 -188 -33 -172 -30
-338 -59 -78 -15 -156 -28 -172 -30 -16 -2 -37 -6 -47 -9 -10 -3 -36 -7 -58
-10 -22 -4 -62 -11 -90 -16 -27 -5 -66 -12 -85 -14 -19 -3 -60 -9 -90 -15 -30
-6 -68 -13 -85 -16 -16 -3 -43 -8 -60 -11 -89 -16 -434 -76 -455 -79 -14 -2
-50 -9 -80 -15 -30 -6 -71 -13 -90 -16 -19 -3 -46 -7 -60 -10 -14 -2 -38 -7
-55 -9 -16 -3 -52 -10 -80 -15 -27 -5 -66 -12 -85 -14 -19 -3 -68 -12 -108
-20 -82 -16 -72 -24 -91 74 -5 25 -11 54 -14 65 -3 11 -8 40 -12 65 -8 51 -6
41 -34 180 -30 151 -31 152 -37 185 -3 17 -21 109 -40 205 -19 96 -37 189 -40
205 -2 17 -7 37 -10 46 -2 10 -6 30 -8 45 -4 26 -30 160 -57 289 -6 28 -17 84
-24 125 -8 41 -17 87 -20 103 -3 15 -7 37 -9 50 -9 43 -65 332 -70 352 -2 11
-11 58 -20 105 -9 47 -18 96 -21 110 -3 14 -9 50 -15 80 -6 30 -15 73 -20 95
-8 37 -23 114 -34 175 -7 39 -35 181 -41 215 -4 17 -8 40 -10 52 -2 11 -6 29
-9 40 -3 10 -8 35 -12 57 -3 21 -7 46 -9 55 -16 79 -36 181 -39 201 -3 14 -12
59 -21 100 -23 109 -27 140 -18 141 8 1 25 3 83 14 40 8 60 11 110 19 19 3 44
7 55 10 11 2 56 9 100 16 44 7 89 14 100 16 11 2 30 5 41 8 12 2 39 7 60 11
81 12 100 16 129 22 17 3 41 7 55 8 36 4 102 15 120 20 8 3 35 7 60 10 25 3
53 8 63 11 10 3 35 7 55 9 20 2 48 7 62 10 14 3 42 7 62 10 21 2 46 6 55 9 10
3 34 7 53 10 19 3 103 17 185 31 83 14 166 28 185 30 19 3 44 8 56 10 12 3 39
7 60 10 21 4 49 8 62 11 44 8 68 12 117 20 28 4 56 8 63 10 23 4 145 24 177
29 17 2 44 7 60 10 33 6 121 21 175 30 19 3 60 10 90 15 30 5 72 12 94 16 21
3 48 7 59 10 12 2 37 6 57 9 34 5 46 7 110 19 14 3 43 8 65 11 22 3 65 10 95
15 30 5 69 12 85 15 17 2 39 7 50 9 11 2 40 7 65 10 25 3 56 8 70 11 59 12
143 26 178 31 20 3 48 7 62 9 59 10 157 26 180 31 14 2 39 7 55 9 17 3 41 7
55 10 13 2 40 7 60 10 20 3 47 8 60 11 14 3 39 7 55 9 17 2 45 7 63 10 17 3
44 7 60 9 15 3 83 14 152 26 69 12 139 24 155 26 17 3 44 7 60 9 17 3 41 7 55
10 14 3 41 7 60 10 19 3 46 7 60 10 14 3 41 8 60 11 19 3 46 7 60 10 14 2 41
7 60 10 19 2 58 9 85 14 28 5 66 12 85 14 19 3 49 8 65 11 38 7 129 22 175 29
19 3 46 8 60 11 31 5 201 34 253 41 47 7 72 12 72 14 0 1 12 3 26 5 52 7 105
15 184 30 44 8 96 17 115 19 19 3 49 8 65 11 17 3 57 9 90 15 33 6 74 12 90
15 17 3 48 8 70 11 22 3 56 9 75 13 39 8 46 2 55 -50z"/>
<path d="M3182 4542 c-43 -42 -44 -45 -38 -90 5 -49 14 -96 21 -122 2 -8 7
-31 10 -50 3 -19 10 -60 16 -90 5 -30 14 -77 19 -105 5 -27 12 -63 15 -80 3
-16 12 -66 20 -110 8 -44 17 -92 20 -107 3 -16 7 -39 10 -53 6 -28 10 -54 26
-140 13 -74 14 -84 22 -115 7 -34 25 -128 32 -170 3 -19 9 -53 15 -75 11 -49
10 -43 10 -55 0 -6 18 -27 41 -48 36 -34 46 -38 85 -37 25 1 64 11 87 21 39
17 59 32 123 89 12 11 37 32 55 47 19 14 44 35 57 46 13 11 41 35 62 52 22 18
50 42 63 53 13 12 45 40 72 62 27 22 62 52 79 66 36 31 122 104 151 128 11 9
50 41 85 71 36 30 71 60 79 65 7 6 41 38 75 72 l62 63 -2 72 c-1 49 -8 86 -20
112 -21 43 -15 41 -224 116 -128 47 -157 58 -182 71 -10 5 -25 9 -33 9 -8 0
-23 4 -33 9 -9 5 -44 19 -77 31 -33 12 -69 25 -80 30 -59 22 -152 57 -350 129
-186 68 -228 80 -274 78 -49 -2 -58 -6 -99 -45z"/>
</g>
</svg>
