<?xml version="1.0" encoding="UTF-8" standalone="no"?>
<!-- Created with Inkscape (http://www.inkscape.org/) -->

<svg
   xmlns:dc="http://purl.org/dc/elements/1.1/"
   xmlns:cc="http://creativecommons.org/ns#"
   xmlns:rdf="http://www.w3.org/1999/02/22-rdf-syntax-ns#"
   xmlns:svg="http://www.w3.org/2000/svg"
   xmlns="http://www.w3.org/2000/svg"
   xmlns:sodipodi="http://sodipodi.sourceforge.net/DTD/sodipodi-0.dtd"
   xmlns:inkscape="http://www.inkscape.org/namespaces/inkscape"
   width="40.691429mm"
   height="40.6908mm"
   viewBox="0 0 40.691429 40.6908"
   version="1.1"
   id="svg8"
   inkscape:version="0.92.4 (5da689c313, 2019-01-14)"
   sodipodi:docname="Logo_sirkel_hvit.svg">
  <defs
     id="defs2">
    <clipPath
       id="clipPath1083"
       clipPathUnits="userSpaceOnUse">
      <path
         inkscape:connector-curvature="0"
         id="path1081"
         d="M 0,200 H 1000 V 0 H 0 Z" />
    </clipPath>
  </defs>
  <sodipodi:namedview
     id="base"
     pagecolor="#ffffff"
     bordercolor="#666666"
     borderopacity="1.0"
     inkscape:pageopacity="0.0"
     inkscape:pageshadow="2"
     inkscape:zoom="0.98994949"
     inkscape:cx="456.6269"
     inkscape:cy="106.45953"
     inkscape:document-units="mm"
     inkscape:current-layer="g551"
     showgrid="false"
     fit-margin-top="0"
     fit-margin-left="0"
     fit-margin-right="0"
     fit-margin-bottom="0"
     inkscape:window-width="2560"
     inkscape:window-height="1336"
     inkscape:window-x="1432"
     inkscape:window-y="1432"
     inkscape:window-maximized="1" />
  <metadata
     id="metadata5">
    <rdf:RDF>
      <cc:Work
         rdf:about="">
        <dc:format>image/svg+xml</dc:format>
        <dc:type
           rdf:resource="http://purl.org/dc/dcmitype/StillImage" />
        <dc:title></dc:title>
      </cc:Work>
    </rdf:RDF>
  </metadata>
  <g
     inkscape:label="Layer 1"
     inkscape:groupmode="layer"
     id="layer1"
     transform="translate(-84.715111,-96.812857)">
    <g
       id="g551"
       transform="translate(24.722431,3.140417)">
      <path
         inkscape:connector-curvature="0"
         id="path1113"
         style="fill:#ffffff;fill-opacity:1;fill-rule:nonzero;stroke:none;stroke-width:0.35277775"
         d="m 100.68261,113.96784 c 0,-0.14322 -0.002,-0.28575 -0.005,-0.42615 -7.9e-4,-0.0272 -0.001,-0.0554 -0.002,-0.0825 -0.004,-0.15522 -0.01,-0.30939 -0.0173,-0.46144 -0.002,-0.0378 -0.005,-0.0755 -0.007,-0.11359 -0.005,-0.0974 -0.0116,-0.19367 -0.0183,-0.28998 -0.0628,-0.91052 -0.18626,-1.80376 -0.36512,-2.67723 -0.0162,-0.0684 -0.0332,-0.14394 -0.0504,-0.22719 -0.681562,-3.23674 -2.287405,-5.44019 -2.296227,-5.45183 -2.253191,-3.04236 -3.364441,-0.64417 -3.366557,-0.64029 l -3.159477,8.92487 h -0.01058 l -2.224617,6.20995 c 0,0 -3.96981,11.02642 -15.403338,6.04873 -1.177925,-0.60008 -2.064103,-1.30881 -2.694517,-1.92758 -2.183694,-2.28529 -3.524955,-5.38233 -3.524955,-8.79263 0,-7.03157 5.69983,-12.73175 12.731397,-12.73175 1.828447,0 3.566936,0.38629 5.138209,1.0802 0.0187,0.01 0.03951,0.0183 0.06033,0.0265 0.41416,0.18556 0.81668,0.39264 1.205793,0.61983 0.388056,0.33373 0.354896,0.64135 0.276931,0.92146 -0.136525,0.32808 -0.50553,0.69003 -1.266472,1.06115 l -7.070751,2.97568 c -0.210256,0.0755 -0.41522,0.16193 -0.614186,0.25859 l -0.0028,0.001 v 0 c -2.1082,1.02447 -3.561645,3.18629 -3.561645,5.68748 0,0.009 3.44e-4,0.0169 3.44e-4,0.0261 0,0.0102 -3.44e-4,0.0201 -3.44e-4,0.031 0,3.49039 2.829631,6.32037 6.320367,6.32037 2.034116,0 3.842808,-0.96167 4.998861,-2.45428 l 0.006,-0.007 c 0.0025,-0.003 0.0046,-0.006 0.0071,-0.01 0.0053,-0.007 0.01058,-0.0131 0.01587,-0.0201 0.0381,-0.0497 0.07514,-0.10018 0.112183,-0.1531 0.320675,-0.44732 0.583494,-0.9391 0.779637,-1.46332 0.06068,-0.14182 0.110421,-0.26529 0.146757,-0.35843 h 2.64e-4 l 0.01834,-0.0487 c 0.03316,-0.0871 0.0508,-0.13758 0.0508,-0.13758 l 3.485083,-9.36738 c 0.0011,10e-4 0.0021,0.002 0.0028,0.004 l 1.694744,-4.56671 0.208847,-0.56303 c 0.23777,-0.74966 0.527402,-2.11067 -0.01871,-3.22475 -0.343959,-0.57643 -0.845609,-0.99342 -1.18604,-1.23225 -0.08396,-0.0522 -0.167921,-0.10442 -0.252587,-0.15557 -0.378082,-0.25259 -0.66489,-0.38418 -0.66489,-0.38418 0,0 -7.94e-4,3.5e-4 -0.0011,7.1e-4 -2.911474,-1.60832 -6.258982,-2.52448 -9.820274,-2.52448 -11.236325,0 -20.3454,9.10907 -20.3454,20.34575 0,11.23633 9.109075,20.34505 20.3454,20.34505 3.484739,0 6.764867,-0.87666 9.632247,-2.42112 0.09349,-0.0469 0.18556,-0.0963 0.275166,-0.15028 0.0127,-0.007 0.02574,-0.0152 0.0381,-0.0226 2.644421,-1.48484 4.923718,-3.54224 6.668204,-6.00534 1.798108,-2.48038 3.188763,-5.60458 3.608213,-9.4943 0.002,-0.0243 0.005,-0.0476 0.007,-0.0716 0.009,-0.0833 0.0173,-0.16652 0.0251,-0.25012 0.004,-0.0473 0.009,-0.0945 0.0124,-0.14182 0.0268,-0.30515 0.0469,-0.61313 0.0596,-0.92322 0.003,-0.0684 0.006,-0.13758 0.008,-0.20567 0.002,-0.0699 0.004,-0.13935 0.006,-0.2092 0.004,-0.14499 0.005,-0.28892 0.006,-0.43144 0,-0.006 0,-0.0123 0,-0.0183 0,-0.0166 -2.7e-4,-0.0335 -2.7e-4,-0.0504" />
    </g>
  </g>
</svg>
