<?xml version="1.0" encoding="UTF-8" standalone="no"?>
<!-- Created with Inkscape (http://www.inkscape.org/) -->

<svg
   xmlns:dc="http://purl.org/dc/elements/1.1/"
   xmlns:cc="http://creativecommons.org/ns#"
   xmlns:rdf="http://www.w3.org/1999/02/22-rdf-syntax-ns#"
   xmlns:svg="http://www.w3.org/2000/svg"
   xmlns="http://www.w3.org/2000/svg"
   xmlns:sodipodi="http://sodipodi.sourceforge.net/DTD/sodipodi-0.dtd"
   xmlns:inkscape="http://www.inkscape.org/namespaces/inkscape"
   width="530.69965mm"
   height="80.84919mm"
   viewBox="0 0 1880.4318 286.47351"
   id="svg4709"
   version="1.1"
   inkscape:version="0.91 r13725"
   sodipodi:docname="logo03.svg">
  <defs
     id="defs4711" />
  <sodipodi:namedview
     id="base"
     pagecolor="#ffffff"
     bordercolor="#666666"
     borderopacity="1.0"
     inkscape:pageopacity="0.0"
     inkscape:pageshadow="2"
     inkscape:zoom="0.7"
     inkscape:cx="461.5693"
     inkscape:cy="-192.06262"
     inkscape:document-units="px"
     inkscape:current-layer="layer7"
     showgrid="false"
     width="800mm"
     inkscape:snap-text-baseline="false"
     fit-margin-top="0"
     fit-margin-left="-100"
     fit-margin-right="0"
     fit-margin-bottom="0"
     inkscape:window-width="2126"
     inkscape:window-height="1130"
     inkscape:window-x="1627"
     inkscape:window-y="1192"
     inkscape:window-maximized="0" />
  <metadata
     id="metadata4714">
    <rdf:RDF>
      <cc:Work
         rdf:about="">
        <dc:format>image/svg+xml</dc:format>
        <dc:type
           rdf:resource="http://purl.org/dc/dcmitype/StillImage" />
        <dc:title />
      </cc:Work>
    </rdf:RDF>
  </metadata>
  <g
     inkscape:groupmode="layer"
     id="layer6"
     inkscape:label="Layer 2"
     style="display:none">
    <rect
       style="fill:#37375a;fill-opacity:1;stroke:#4c555a;stroke-width:0;stroke-linecap:round;stroke-linejoin:round;stroke-miterlimit:4;stroke-dasharray:none;stroke-opacity:1"
       id="rect5302"
       width="1874.2858"
       height="284.28571"
       x="2.8571432"
       y="0.75922745" />
  </g>
  <g
     inkscape:label="Layer 1"
     inkscape:groupmode="layer"
     id="layer1"
     transform="translate(-503.45653,-473.29988)"
     style="display:inline">
    <path
       style="fill:none;fill-rule:evenodd;stroke:#4c555a;stroke-width:12.99329948;stroke-linecap:round;stroke-linejoin:miter;stroke-miterlimit:4;stroke-dasharray:none;stroke-opacity:1"
       d="M 661.67835,733.30633 829.48411,704.44075"
       id="path4704"
       inkscape:connector-curvature="0" />
    <path
       style="fill:none;fill-rule:evenodd;stroke:#4c555a;stroke-width:14;stroke-linecap:butt;stroke-linejoin:miter;stroke-miterlimit:4;stroke-dasharray:none;stroke-opacity:1"
       d="m 694.66297,716.18228 92.85716,-16.07143"
       id="path4707"
       inkscape:connector-curvature="0" />
    <path
       style="fill:none;fill-opacity:1;fill-rule:evenodd;stroke:#4c555a;stroke-width:15.39999962;stroke-linecap:butt;stroke-linejoin:round;stroke-miterlimit:4;stroke-dasharray:none;stroke-opacity:1"
       d="M 550.12112,545.81142 584.4663,721.57796 895.59329,667.02972 863.26839,493.28348 Z"
       id="path4696"
       inkscape:connector-curvature="0" />
    <path
       style="fill:#4c555a;fill-opacity:1;fill-rule:evenodd;stroke:#4c555a;stroke-width:0;stroke-linecap:butt;stroke-linejoin:round;stroke-miterlimit:4;stroke-dasharray:none;stroke-opacity:1"
       d="m 689.41043,581.05229 11.42857,61.42857 3.57143,3.57143 4.28571,0 3.92858,-1.78571 40.71427,-34.28572 2.5,-3.21428 0,-6.42857 -1.7857,-3.92857 -55.35715,-20.35715 -4.64285,0.35715 -2.5,1.42857 z"
       id="path4699"
       inkscape:connector-curvature="0" />
    <flowRoot
       xml:space="preserve"
       id="flowRoot5281"
       style="font-style:normal;font-weight:normal;font-size:40px;line-height:125%;font-family:sans-serif;letter-spacing:0px;word-spacing:0px;fill:#000000;fill-opacity:1;stroke:none;stroke-width:1px;stroke-linecap:butt;stroke-linejoin:miter;stroke-opacity:1"
       transform="translate(0,308.26772)"><flowRegion
         id="flowRegion5283"><rect
           id="rect5285"
           width="122.85714"
           height="68.571426"
           x="477.14285"
           y="341.23734" /></flowRegion><flowPara
         id="flowPara5287">Infoplakat.no</flowPara></flowRoot>  </g>
  <g
     inkscape:groupmode="layer"
     id="layer7"
     inkscape:label="Layer 3"
     style="display:inline">
    <g
       transform="scale(1.0533531,0.94934927)"
       style="font-style:normal;font-weight:normal;font-size:266.0642395px;line-height:125%;font-family:sans-serif;letter-spacing:0px;word-spacing:0px;display:inline;fill:#4c555a;fill-opacity:1;stroke:none;stroke-width:1px;stroke-linecap:butt;stroke-linejoin:miter;stroke-opacity:1"
       id="text5349">
      <path
         sodipodi:type="inkscape:offset"
         inkscape:radius="0"
         inkscape:original="M 703.97461 57.226562 C 687.4322 57.226562 679.16211 67.619981 679.16211 88.40625 L 679.16211 100.09766 L 663.57227 100.09766 L 663.57227 110.49219 L 679.16211 110.49219 L 679.16211 200.78125 L 689.55469 200.78125 L 689.55469 110.49219 L 708.65234 110.49219 L 708.65234 100.09766 L 689.55469 100.09766 L 689.55469 88.666016 C 689.55469 84.681981 689.90087 81.347003 690.59375 78.662109 C 691.28662 75.977217 692.45598 73.811596 694.10156 72.166016 C 695.74714 70.520436 697.86852 69.351079 700.4668 68.658203 C 703.15169 67.965328 706.40012 67.619141 710.21094 67.619141 L 711.64062 67.619141 C 712.16029 67.619141 712.76611 67.663391 713.45898 67.75 L 713.45898 57.746094 C 712.24645 57.572875 710.7732 57.444031 709.04102 57.357422 C 707.39544 57.270813 705.7068 57.226562 703.97461 57.226562 z M 514.42969 58.525391 L 514.42969 200.78125 L 524.82227 200.78125 L 524.82227 58.525391 L 514.42969 58.525391 z M 952.5 58.525391 L 952.5 200.78125 L 962.89453 200.78125 L 962.89453 58.525391 L 952.5 58.525391 z M 1107.6172 58.525391 L 1107.6172 200.78125 L 1118.0117 200.78125 L 1118.0117 160.11914 L 1134.5098 144.00977 L 1171.1465 200.78125 L 1184.1367 200.78125 L 1141.6562 136.99414 L 1179.8496 99.837891 L 1166.3398 99.837891 L 1118.0117 146.99805 L 1118.0117 58.525391 L 1107.6172 58.525391 z M 1320.6777 73.726562 L 1320.6777 100.09766 L 1307.8164 100.09766 L 1307.8164 110.49219 L 1320.6777 110.49219 L 1320.6777 172.07031 C 1320.6777 177.09366 1320.8932 181.51145 1321.3262 185.32227 C 1321.7592 189.04647 1322.669 192.16411 1324.0547 194.67578 C 1325.5271 197.18745 1327.6061 199.09343 1330.291 200.39258 C 1333.0625 201.6051 1336.6995 202.21094 1341.2031 202.21094 C 1342.6755 202.21094 1344.1488 202.16668 1345.6211 202.08008 C 1347.0934 201.99347 1348.5647 201.86463 1350.0371 201.69141 L 1350.0371 191.6875 C 1349.171 191.77411 1348.3921 191.81836 1347.6992 191.81836 L 1345.2305 191.81836 C 1342.9786 191.81836 1340.9438 191.64527 1339.125 191.29883 C 1337.3928 190.86578 1335.9215 189.99836 1334.709 188.69922 C 1333.4965 187.31347 1332.5867 185.40943 1331.9805 182.98438 C 1331.3742 180.4727 1331.0703 177.13773 1331.0703 172.98047 L 1331.0703 110.49219 L 1347.5703 110.49219 L 1347.5703 100.09766 L 1331.0703 100.09766 L 1331.0703 73.726562 L 1320.6777 73.726562 z M 885.07422 97.369141 C 882.56255 97.369141 879.96419 97.544187 877.2793 97.890625 C 874.68101 98.237062 871.95382 99.015986 869.0957 100.22852 C 866.23759 101.44105 863.2488 103.21623 860.13086 105.55469 C 857.09953 107.89314 853.9396 111.05503 850.64844 115.03906 L 850.64844 100.09766 L 840.25391 100.09766 L 840.25391 237.80664 L 850.64844 237.80664 L 850.64844 190.7793 C 853.76638 193.6374 856.79747 195.93187 859.74219 197.66406 C 862.68691 199.30964 865.5449 200.56555 868.31641 201.43164 C 871.08791 202.29773 873.77281 202.81701 876.37109 202.99023 C 878.96937 203.25006 881.48118 203.38086 883.90625 203.38086 C 889.62247 203.38086 894.90573 202.12495 899.75586 199.61328 C 904.6926 197.015 908.93534 193.37613 912.48633 188.69922 C 916.12392 184.02231 918.93962 178.39286 920.93164 171.81055 C 923.01027 165.14161 924.04883 157.69274 924.04883 149.46484 C 924.04883 141.66999 923.18336 134.56926 921.45117 128.16016 C 919.71898 121.75106 917.20718 116.2947 913.91602 111.79102 C 910.62486 107.20071 906.55521 103.64839 901.70508 101.13672 C 896.85495 98.625047 891.3101 97.369141 885.07422 97.369141 z M 610.17578 97.5 C 607.75071 97.5 605.15431 97.673093 602.38281 98.019531 C 599.61131 98.279359 596.66481 99.015986 593.54688 100.22852 C 590.51555 101.44105 587.35561 103.21623 584.06445 105.55469 C 580.8599 107.89314 577.56917 111.05503 574.19141 115.03906 L 574.19141 100.09766 L 563.79688 100.09766 L 563.79688 200.78125 L 574.19141 200.78125 L 574.19141 127.25 C 579.56119 121.10073 584.97329 116.33676 590.42969 112.95898 C 595.97269 109.58122 601.60213 107.89258 607.31836 107.89258 C 611.64883 107.89258 615.28575 108.45611 618.23047 109.58203 C 621.2618 110.62134 623.68706 112.26768 625.50586 114.51953 C 627.41127 116.68477 628.75372 119.49851 629.5332 122.96289 C 630.3993 126.34066 630.83398 130.36802 630.83398 135.04492 L 630.83398 200.78125 L 641.22656 200.78125 L 641.22656 134.13672 C 641.22656 109.71286 630.87544 97.5 610.17578 97.5 z M 768.54297 97.5 C 761.78744 97.5 755.63676 98.711656 750.09375 101.13672 C 744.55074 103.47518 739.83102 106.8967 735.93359 111.40039 C 732.03617 115.90408 729.00508 121.44698 726.83984 128.0293 C 724.76122 134.525 723.72266 141.93159 723.72266 150.24609 C 723.72266 158.73382 724.80351 166.26729 726.96875 172.84961 C 729.13398 179.43193 732.16703 185.01908 736.06445 189.60938 C 739.96188 194.11307 744.63736 197.53459 750.09375 199.87305 C 755.63676 202.2115 761.78744 203.38086 768.54297 203.38086 C 775.29851 203.38086 781.44723 202.2115 786.99023 199.87305 C 792.53323 197.44798 797.25296 193.9822 801.15039 189.47852 C 805.04782 184.88821 808.03661 179.30302 810.11523 172.7207 C 812.28047 166.13838 813.36328 158.64721 813.36328 150.24609 C 813.36328 142.0182 812.32277 134.65587 810.24414 128.16016 C 808.16551 121.57784 805.17868 116.03494 801.28125 111.53125 C 797.38382 106.94095 792.66215 103.47518 787.11914 101.13672 C 781.57613 98.711656 775.38512 97.5 768.54297 97.5 z M 1034.3457 97.5 C 1021.7007 97.5 1012.1747 99.838716 1005.7656 104.51562 C 999.35652 109.10593 995.63306 116.16437 994.59375 125.69141 L 1004.8555 125.69141 C 1005.7215 119.71535 1008.493 115.25527 1013.1699 112.31055 C 1017.9335 109.36583 1025.0362 107.89258 1034.4766 107.89258 C 1040.8857 107.89258 1045.9516 108.67345 1049.6758 110.23242 C 1053.4 111.79139 1056.2157 113.95506 1058.1211 116.72656 C 1060.0265 119.41146 1061.2381 122.61759 1061.7578 126.3418 C 1062.2775 130.066 1062.5371 134.13565 1062.5371 138.55273 L 1050.5859 138.55273 C 1030.9256 138.55273 1016.1586 141.75692 1006.2852 148.16602 C 996.49826 154.57512 991.60547 163.53954 991.60547 175.05859 C 991.60547 179.30246 992.38439 183.20097 993.94336 186.75195 C 995.58894 190.21633 997.79688 193.20316 1000.5684 195.71484 C 1003.3399 198.1399 1006.6306 200.00163 1010.4414 201.30078 C 1014.2522 202.68653 1018.368 203.38086 1022.7852 203.38086 C 1026.0763 203.38086 1029.3228 203.16352 1032.5273 202.73047 C 1035.7319 202.29742 1038.936 201.5185 1042.1406 200.39258 C 1045.4318 199.18004 1048.7667 197.57796 1052.1445 195.58594 C 1055.5223 193.50731 1058.9861 190.90896 1062.5371 187.79102 L 1062.5371 200.78125 L 1072.9316 200.78125 L 1072.9316 135.04492 C 1072.9316 129.24209 1072.2373 124.04538 1070.8516 119.45508 C 1069.4658 114.77817 1067.2156 110.83737 1064.0977 107.63281 C 1061.0663 104.34165 1057.0813 101.82984 1052.1445 100.09766 C 1047.2944 98.365467 1041.3611 97.5 1034.3457 97.5 z M 1244.2871 97.5 C 1231.6422 97.5 1222.1162 99.838716 1215.707 104.51562 C 1209.298 109.10593 1205.5725 116.16437 1204.5332 125.69141 L 1214.7969 125.69141 C 1215.663 119.71535 1218.4345 115.25527 1223.1113 112.31055 C 1227.8749 109.36583 1234.9776 107.89258 1244.418 107.89258 C 1250.8271 107.89258 1255.893 108.67345 1259.6172 110.23242 C 1263.3414 111.79139 1266.1571 113.95506 1268.0625 116.72656 C 1269.9679 119.41146 1271.1796 122.61759 1271.6992 126.3418 C 1272.2189 130.066 1272.4785 134.13565 1272.4785 138.55273 L 1260.5273 138.55273 C 1240.867 138.55273 1226.1 141.75692 1216.2266 148.16602 C 1206.4397 154.57512 1201.5469 163.53954 1201.5469 175.05859 C 1201.5469 179.30246 1202.3258 183.20097 1203.8848 186.75195 C 1205.5304 190.21633 1207.7383 193.20316 1210.5098 195.71484 C 1213.2813 198.1399 1216.572 200.00163 1220.3828 201.30078 C 1224.1936 202.68653 1228.3075 203.38086 1232.7246 203.38086 C 1236.0157 203.38086 1239.2642 203.16352 1242.4688 202.73047 C 1245.6734 202.29742 1248.8775 201.5185 1252.082 200.39258 C 1255.3732 199.18004 1258.7081 197.57796 1262.0859 195.58594 C 1265.4637 193.50731 1268.9275 190.90896 1272.4785 187.79102 L 1272.4785 200.78125 L 1282.873 200.78125 L 1282.873 135.04492 C 1282.873 129.24209 1282.1787 124.04538 1280.793 119.45508 C 1279.4072 114.77817 1277.157 110.83737 1274.0391 107.63281 C 1271.0077 104.34165 1267.0227 101.82984 1262.0859 100.09766 C 1257.2358 98.365467 1251.3025 97.5 1244.2871 97.5 z M 1481.6406 97.5 C 1479.2156 97.5 1476.6172 97.673093 1473.8457 98.019531 C 1471.0742 98.279359 1468.1297 99.015986 1465.0117 100.22852 C 1461.9804 101.44105 1458.8185 103.21623 1455.5273 105.55469 C 1452.3227 107.89314 1449.032 111.05503 1445.6543 115.03906 L 1445.6543 100.09766 L 1435.2617 100.09766 L 1435.2617 200.78125 L 1445.6543 200.78125 L 1445.6543 127.25 C 1451.0241 121.10073 1456.4382 116.33676 1461.8945 112.95898 C 1467.4376 109.58122 1473.067 107.89258 1478.7832 107.89258 C 1483.1137 107.89258 1486.7506 108.45611 1489.6953 109.58203 C 1492.7266 110.62134 1495.1519 112.26768 1496.9707 114.51953 C 1498.8761 116.68477 1500.2186 119.49851 1500.998 122.96289 C 1501.8642 126.34066 1502.2969 130.36802 1502.2969 135.04492 L 1502.2969 200.78125 L 1512.6914 200.78125 L 1512.6914 134.13672 C 1512.6914 109.71286 1502.3403 97.5 1481.6406 97.5 z M 1584.9219 97.5 C 1578.1663 97.5 1572.0176 98.711656 1566.4746 101.13672 C 1560.9316 103.47518 1556.2119 106.8967 1552.3145 111.40039 C 1548.417 115.90408 1545.3859 121.44698 1543.2207 128.0293 C 1541.1421 134.525 1540.1016 141.93159 1540.1016 150.24609 C 1540.1016 158.73382 1541.1844 166.26729 1543.3496 172.84961 C 1545.5149 179.43193 1548.546 185.01907 1552.4434 189.60938 C 1556.3408 194.11307 1561.0182 197.53459 1566.4746 199.87305 C 1572.0176 202.2115 1578.1663 203.38086 1584.9219 203.38086 C 1591.6775 203.38086 1597.8281 202.2115 1603.3711 199.87305 C 1608.9141 197.44798 1613.6338 193.9822 1617.5312 189.47852 C 1621.4286 184.88821 1624.4174 179.30302 1626.4961 172.7207 C 1628.6613 166.13838 1629.7441 158.64721 1629.7441 150.24609 C 1629.7441 142.0182 1628.7036 134.65587 1626.625 128.16016 C 1624.5464 121.57784 1621.5596 116.03494 1617.6621 111.53125 C 1613.7647 106.94095 1609.043 103.47518 1603.5 101.13672 C 1597.957 98.711656 1591.7641 97.5 1584.9219 97.5 z M 768.54297 107.89258 C 773.65293 107.89258 778.28611 108.80229 782.44336 110.62109 C 786.68723 112.35328 790.32414 114.99589 793.35547 118.54688 C 796.3868 122.01125 798.72551 126.42709 800.37109 131.79688 C 802.10328 137.08005 802.96875 143.23073 802.96875 150.24609 C 802.96875 157.34807 802.10328 163.58334 800.37109 168.95312 C 798.72551 174.2363 796.3868 178.69638 793.35547 182.33398 C 790.32414 185.88497 786.68723 188.56988 782.44336 190.38867 C 778.28611 192.12087 773.65293 192.98633 768.54297 192.98633 C 763.3464 192.98633 758.62472 192.12087 754.38086 190.38867 C 750.22361 188.56988 746.62899 185.88497 743.59766 182.33398 C 740.56633 178.69638 738.22956 174.2363 736.58398 168.95312 C 734.9384 163.58335 734.11523 157.34807 734.11523 150.24609 C 734.11523 143.23073 734.9384 137.08005 736.58398 131.79688 C 738.22956 126.42709 740.56633 122.01125 743.59766 118.54688 C 746.62899 114.99589 750.22361 112.35328 754.38086 110.62109 C 758.62472 108.80229 763.3464 107.89258 768.54297 107.89258 z M 883.64648 107.89258 C 893.17352 107.89258 900.53586 111.40065 905.73242 118.41602 C 911.0156 125.43138 913.65625 135.78055 913.65625 149.46484 C 913.65625 156.65342 912.91963 162.97719 911.44727 168.43359 C 909.97491 173.80338 907.89583 178.30577 905.21094 181.94336 C 902.52604 185.58096 899.27956 188.35241 895.46875 190.25781 C 891.74454 192.07661 887.54409 192.98633 882.86719 192.98633 C 870.74186 192.98633 860.00226 188.04926 850.64844 178.17578 L 850.64844 128.0293 C 860.17548 114.60483 871.17472 107.89258 883.64648 107.89258 z M 1584.9219 107.89258 C 1590.0319 107.89258 1594.667 108.80229 1598.8242 110.62109 C 1603.0681 112.35328 1606.705 114.99589 1609.7363 118.54688 C 1612.7677 122.01126 1615.1064 126.42709 1616.752 131.79688 C 1618.4842 137.08005 1619.3496 143.23073 1619.3496 150.24609 C 1619.3496 157.34807 1618.4842 163.58335 1616.752 168.95312 C 1615.1064 174.2363 1612.7677 178.69638 1609.7363 182.33398 C 1606.705 185.88497 1603.0681 188.56988 1598.8242 190.38867 C 1594.667 192.12087 1590.0319 192.98633 1584.9219 192.98633 C 1579.7253 192.98633 1575.0056 192.12087 1570.7617 190.38867 C 1566.6045 188.56988 1563.0098 185.88497 1559.9785 182.33398 C 1556.9472 178.69638 1554.6104 174.2363 1552.9648 168.95312 C 1551.3192 163.58334 1550.4961 157.34807 1550.4961 150.24609 C 1550.4961 143.23073 1551.3192 137.08005 1552.9648 131.79688 C 1554.6104 126.42709 1556.9472 122.01125 1559.9785 118.54688 C 1563.0098 114.99589 1566.6045 112.35328 1570.7617 110.62109 C 1575.0056 108.80229 1579.7253 107.89258 1584.9219 107.89258 z M 1046.8184 148.94531 L 1062.5371 148.94531 L 1062.5371 175.18945 C 1060.7183 177.18147 1058.5546 179.25859 1056.043 181.42383 C 1053.6179 183.50245 1050.933 185.40844 1047.9883 187.14062 C 1045.0435 188.87281 1041.8816 190.30181 1038.5039 191.42773 C 1035.2127 192.46705 1031.7912 192.98633 1028.2402 192.98633 C 1020.0989 192.98633 1013.6905 191.34194 1009.0137 188.05078 C 1004.3367 184.67301 1001.998 179.99558 1001.998 174.01953 C 1001.998 165.96485 1005.6792 159.77188 1013.041 155.44141 C 1020.4894 151.11093 1031.7483 148.94531 1046.8184 148.94531 z M 1256.7598 148.94531 L 1272.4785 148.94531 L 1272.4785 175.18945 C 1270.6597 177.18147 1268.496 179.25859 1265.9844 181.42383 C 1263.5593 183.50245 1260.8744 185.40844 1257.9297 187.14062 C 1254.985 188.87281 1251.823 190.30181 1248.4453 191.42773 C 1245.1541 192.46705 1241.7326 192.98633 1238.1816 192.98633 C 1230.0403 192.98633 1223.6319 191.34194 1218.9551 188.05078 C 1214.2781 184.67301 1211.9395 179.99558 1211.9395 174.01953 C 1211.9395 165.96485 1215.6206 159.77188 1222.9824 155.44141 C 1230.4308 151.11093 1241.6897 148.94531 1256.7598 148.94531 z M 1377.8398 181.81445 L 1377.8398 200.78125 L 1396.8066 200.78125 L 1396.8066 181.81445 L 1377.8398 181.81445 z "
         style="font-style:normal;font-variant:normal;font-weight:normal;font-stretch:normal;font-size:266.0642395px;line-height:125%;font-family:'Microsoft Yi Baiti';-inkscape-font-specification:'Microsoft Yi Baiti, Normal';text-align:start;writing-mode:lr-tb;text-anchor:start;fill:#4c555a;fill-opacity:1;stroke:none;stroke-opacity:1"
         id="path4175"
         d="m 703.97461,57.226562 c -16.54241,0 -24.8125,10.393419 -24.8125,31.179688 l 0,11.69141 -15.58984,0 0,10.39453 15.58984,0 0,90.28906 10.39258,0 0,-90.28906 19.09765,0 0,-10.39453 -19.09765,0 0,-11.431644 c 0,-3.984035 0.34618,-7.319013 1.03906,-10.003907 0.69287,-2.684892 1.86223,-4.850513 3.50781,-6.496093 1.64558,-1.64558 3.76696,-2.814937 6.36524,-3.507813 2.68489,-0.692875 5.93332,-1.039062 9.74414,-1.039062 l 1.42968,0 c 0.51967,0 1.12549,0.04425 1.81836,0.130859 l 0,-10.003906 c -1.21253,-0.173219 -2.68578,-0.302063 -4.41796,-0.388672 -1.64558,-0.08661 -3.33422,-0.13086 -5.06641,-0.13086 z m -189.54492,1.298829 0,142.255859 10.39258,0 0,-142.255859 -10.39258,0 z m 438.07031,0 0,142.255859 10.39453,0 0,-142.255859 -10.39453,0 z m 155.1172,0 0,142.255859 10.3945,0 0,-40.66211 16.4981,-16.10937 36.6367,56.77148 12.9902,0 -42.4805,-63.78711 38.1934,-37.156249 -13.5098,0 -48.3281,47.160159 0,-88.472659 -10.3945,0 z m 213.0605,15.201171 0,26.371098 -12.8613,0 0,10.39453 12.8613,0 0,61.57812 c 0,5.02335 0.2155,9.44114 0.6485,13.25196 0.433,3.7242 1.3428,6.84184 2.7285,9.35351 1.4724,2.51167 3.5514,4.41765 6.2363,5.7168 2.7715,1.21252 6.4085,1.81836 10.9121,1.81836 1.4724,0 2.9457,-0.0443 4.418,-0.13086 1.4723,-0.0866 2.9436,-0.21545 4.416,-0.38867 l 0,-10.00391 c -0.8661,0.0866 -1.645,0.13086 -2.3379,0.13086 l -2.4687,0 c -2.2519,0 -4.2867,-0.17309 -6.1055,-0.51953 -1.7322,-0.43305 -3.2035,-1.30047 -4.416,-2.59961 -1.2125,-1.38575 -2.1223,-3.28979 -2.7285,-5.71484 -0.6063,-2.51168 -0.9102,-5.84665 -0.9102,-10.00391 l 0,-62.48828 16.5,0 0,-10.39453 -16.5,0 0,-26.371098 -10.3926,0 z M 885.07422,97.369141 c -2.51167,0 -5.11003,0.175046 -7.79492,0.521484 -2.59829,0.346437 -5.32548,1.125361 -8.1836,2.337895 -2.85811,1.21253 -5.8469,2.98771 -8.96484,5.32617 -3.03133,2.33845 -6.19126,5.50034 -9.48242,9.48437 l 0,-14.9414 -10.39453,0 0,137.70898 10.39453,0 0,-47.02734 c 3.11794,2.8581 6.14903,5.15257 9.09375,6.88476 2.94472,1.64558 5.80271,2.90149 8.57422,3.76758 2.7715,0.86609 5.4564,1.38537 8.05468,1.55859 2.59828,0.25983 5.11009,0.39063 7.53516,0.39063 5.71622,0 10.99948,-1.25591 15.84961,-3.76758 4.93674,-2.59828 9.17948,-6.23715 12.73047,-10.91406 3.63759,-4.67691 6.45329,-10.30636 8.44531,-16.88867 2.07863,-6.66894 3.11719,-14.11781 3.11719,-22.34571 0,-7.79485 -0.86547,-14.89558 -2.59766,-21.30468 -1.73219,-6.4091 -4.24399,-11.86546 -7.53515,-16.36914 -3.29116,-4.59031 -7.36081,-8.14263 -12.21094,-10.6543 -4.85013,-2.511673 -10.39498,-3.767579 -16.63086,-3.767579 z M 610.17578,97.5 c -2.42507,0 -5.02147,0.173093 -7.79297,0.519531 -2.7715,0.259828 -5.718,0.996455 -8.83593,2.208989 -3.03133,1.21253 -6.19127,2.98771 -9.48243,5.32617 -3.20455,2.33845 -6.49528,5.50034 -9.87304,9.48437 l 0,-14.9414 -10.39453,0 0,100.68359 10.39453,0 0,-73.53125 c 5.36978,-6.14927 10.78188,-10.91324 16.23828,-14.29102 5.543,-3.37776 11.17244,-5.0664 16.88867,-5.0664 4.33047,0 7.96739,0.56353 10.91211,1.68945 3.03133,1.03931 5.45659,2.68565 7.27539,4.9375 1.90541,2.16524 3.24786,4.97898 4.02734,8.44336 0.8661,3.37777 1.30078,7.40513 1.30078,12.08203 l 0,65.73633 10.39258,0 0,-66.64453 C 641.22656,109.71286 630.87544,97.5 610.17578,97.5 Z m 158.36719,0 c -6.75553,0 -12.90621,1.211656 -18.44922,3.63672 -5.54301,2.33846 -10.26273,5.75998 -14.16016,10.26367 -3.89742,4.50369 -6.92851,10.04659 -9.09375,16.62891 -2.07862,6.4957 -3.11718,13.90229 -3.11718,22.21679 0,8.48773 1.08085,16.0212 3.24609,22.60352 2.16523,6.58232 5.19828,12.16947 9.0957,16.75977 3.89743,4.50369 8.57291,7.92521 14.0293,10.26367 5.54301,2.33845 11.69369,3.50781 18.44922,3.50781 6.75554,0 12.90426,-1.16936 18.44726,-3.50781 5.543,-2.42507 10.26273,-5.89085 14.16016,-10.39453 3.89743,-4.59031 6.88622,-10.1755 8.96484,-16.75782 2.16524,-6.58232 3.24805,-14.07349 3.24805,-22.47461 0,-8.22789 -1.04051,-15.59022 -3.11914,-22.08593 -2.07863,-6.58232 -5.06546,-12.12522 -8.96289,-16.62891 -3.89743,-4.5903 -8.6191,-8.05607 -14.16211,-10.39453 C 781.57613,98.711656 775.38512,97.5 768.54297,97.5 Z m 265.80273,0 c -12.645,0 -22.171,2.338716 -28.5801,7.01562 -6.40908,4.59031 -10.13254,11.64875 -11.17185,21.17579 l 10.26175,0 c 0.866,-5.97606 3.6375,-10.43614 8.3144,-13.38086 4.7636,-2.94472 11.8663,-4.41797 21.3067,-4.41797 6.4091,0 11.475,0.78087 15.1992,2.33984 3.7242,1.55897 6.5399,3.72264 8.4453,6.49414 1.9054,2.6849 3.117,5.89103 3.6367,9.61524 0.5197,3.7242 0.7793,7.79385 0.7793,12.21093 l -11.9512,0 c -19.6603,0 -34.4273,3.20419 -44.3007,9.61329 -9.78694,6.4091 -14.67973,15.37352 -14.67973,26.89257 0,4.24387 0.77892,8.14238 2.33789,11.69336 1.64558,3.46438 3.85352,6.45121 6.62504,8.96289 2.7715,2.42506 6.0622,4.28679 9.873,5.58594 3.8108,1.38575 7.9266,2.08008 12.3438,2.08008 3.2911,0 6.5376,-0.21734 9.7421,-0.65039 3.2046,-0.43305 6.4087,-1.21197 9.6133,-2.33789 3.2912,-1.21254 6.6261,-2.81462 10.0039,-4.80664 3.3778,-2.07863 6.8416,-4.67698 10.3926,-7.79492 l 0,12.99023 10.3945,0 0,-65.73633 c 0,-5.80283 -0.6943,-10.99954 -2.08,-15.58984 -1.3858,-4.67691 -3.636,-8.61771 -6.7539,-11.82227 -3.0314,-3.29116 -7.0164,-5.80297 -11.9532,-7.53515 C 1047.2944,98.365467 1041.3611,97.5 1034.3457,97.5 Z m 209.9414,0 c -12.6449,0 -22.1709,2.338716 -28.5801,7.01562 -6.409,4.59031 -10.1345,11.64875 -11.1738,21.17579 l 10.2637,0 c 0.8661,-5.97606 3.6376,-10.43614 8.3144,-13.38086 4.7636,-2.94472 11.8663,-4.41797 21.3067,-4.41797 6.4091,0 11.475,0.78087 15.1992,2.33984 3.7242,1.55897 6.5399,3.72264 8.4453,6.49414 1.9054,2.6849 3.1171,5.89103 3.6367,9.61524 0.5197,3.7242 0.7793,7.79385 0.7793,12.21093 l -11.9512,0 c -19.6603,0 -34.4273,3.20419 -44.3007,9.61329 -9.7869,6.4091 -14.6797,15.37352 -14.6797,26.89257 0,4.24387 0.7789,8.14238 2.3379,11.69336 1.6456,3.46438 3.8535,6.45121 6.625,8.96289 2.7715,2.42506 6.0622,4.28679 9.873,5.58594 3.8108,1.38575 7.9247,2.08008 12.3418,2.08008 3.2911,0 6.5396,-0.21734 9.7442,-0.65039 3.2046,-0.43305 6.4087,-1.21197 9.6132,-2.33789 3.2912,-1.21254 6.6261,-2.81462 10.0039,-4.80664 3.3778,-2.07863 6.8416,-4.67698 10.3926,-7.79492 l 0,12.99023 10.3945,0 0,-65.73633 c 0,-5.80283 -0.6943,-10.99954 -2.08,-15.58984 -1.3858,-4.67691 -3.636,-8.61771 -6.7539,-11.82227 -3.0314,-3.29116 -7.0164,-5.80297 -11.9532,-7.53515 C 1257.2358,98.365467 1251.3025,97.5 1244.2871,97.5 Z m 237.3535,0 c -2.425,0 -5.0234,0.173093 -7.7949,0.519531 -2.7715,0.259828 -5.716,0.996455 -8.834,2.208989 -3.0313,1.21253 -6.1932,2.98771 -9.4844,5.32617 -3.2046,2.33845 -6.4953,5.50034 -9.873,9.48437 l 0,-14.9414 -10.3926,0 0,100.68359 10.3926,0 0,-73.53125 c 5.3698,-6.14927 10.7839,-10.91324 16.2402,-14.29102 5.5431,-3.37776 11.1725,-5.0664 16.8887,-5.0664 4.3305,0 7.9674,0.56353 10.9121,1.68945 3.0313,1.03931 5.4566,2.68565 7.2754,4.9375 1.9054,2.16524 3.2479,4.97898 4.0273,8.44336 0.8662,3.37777 1.2989,7.40513 1.2989,12.08203 l 0,65.73633 10.3945,0 0,-66.64453 c 0,-24.42386 -10.3511,-36.63672 -31.0508,-36.63672 z m 103.2813,0 c -6.7556,0 -12.9043,1.211656 -18.4473,3.63672 -5.543,2.33846 -10.2627,5.75998 -14.1601,10.26367 -3.8975,4.50369 -6.9286,10.04659 -9.0938,16.62891 -2.0786,6.4957 -3.1191,13.90229 -3.1191,22.21679 0,8.48773 1.0828,16.0212 3.248,22.60352 2.1653,6.58232 5.1964,12.16946 9.0938,16.75977 3.8974,4.50369 8.5748,7.92521 14.0312,10.26367 5.543,2.33845 11.6917,3.50781 18.4473,3.50781 6.7556,0 12.9062,-1.16936 18.4492,-3.50781 5.543,-2.42507 10.2627,-5.89085 14.1601,-10.39453 3.8974,-4.59031 6.8862,-10.1755 8.9649,-16.75782 2.1652,-6.58232 3.248,-14.07349 3.248,-22.47461 0,-8.22789 -1.0405,-15.59022 -3.1191,-22.08593 -2.0786,-6.58232 -5.0654,-12.12522 -8.9629,-16.62891 -3.8974,-4.5903 -8.6191,-8.05607 -14.1621,-10.39453 C 1597.957,98.711656 1591.7641,97.5 1584.9219,97.5 Z m -816.37893,10.39258 c 5.10996,0 9.74314,0.90971 13.90039,2.72851 4.24387,1.73219 7.88078,4.3748 10.91211,7.92579 3.03133,3.46437 5.37004,7.88021 7.01562,13.25 1.73219,5.28317 2.59766,11.43385 2.59766,18.44921 0,7.10198 -0.86547,13.33725 -2.59766,18.70703 -1.64558,5.28318 -3.98429,9.74326 -7.01562,13.38086 -3.03133,3.55099 -6.66824,6.2359 -10.91211,8.05469 -4.15725,1.7322 -8.79043,2.59766 -13.90039,2.59766 -5.19657,0 -9.91825,-0.86546 -14.16211,-2.59766 -4.15725,-1.81879 -7.75187,-4.5037 -10.7832,-8.05469 -3.03133,-3.6376 -5.3681,-8.09768 -7.01368,-13.38086 -1.64558,-5.36977 -2.46875,-11.60505 -2.46875,-18.70703 0,-7.01536 0.82317,-13.16604 2.46875,-18.44921 1.64558,-5.36979 3.98235,-9.78563 7.01368,-13.25 3.03133,-3.55099 6.62595,-6.1936 10.7832,-7.92579 4.24386,-1.8188 8.96554,-2.72851 14.16211,-2.72851 z m 115.10351,0 c 9.52704,0 16.88938,3.50807 22.08594,10.52344 5.28318,7.01536 7.92383,17.36453 7.92383,31.04882 0,7.18858 -0.73662,13.51235 -2.20898,18.96875 -1.47236,5.36979 -3.55144,9.87218 -6.23633,13.50977 -2.6849,3.6376 -5.93138,6.40905 -9.74219,8.31445 -3.72421,1.8188 -7.92466,2.72852 -12.60156,2.72852 -12.12533,0 -22.86493,-4.93707 -32.21875,-14.81055 l 0,-50.14648 c 9.52704,-13.42447 20.52628,-20.13672 32.99804,-20.13672 z m 701.27542,0 c 5.11,0 9.7451,0.90971 13.9023,2.72851 4.2439,1.73219 7.8808,4.3748 10.9121,7.92579 3.0314,3.46438 5.3701,7.88021 7.0157,13.25 1.7322,5.28317 2.5976,11.43385 2.5976,18.44921 0,7.10198 -0.8654,13.33726 -2.5976,18.70703 -1.6456,5.28318 -3.9843,9.74326 -7.0157,13.38086 -3.0313,3.55099 -6.6682,6.2359 -10.9121,8.05469 -4.1572,1.7322 -8.7923,2.59766 -13.9023,2.59766 -5.1966,0 -9.9163,-0.86546 -14.1602,-2.59766 -4.1572,-1.81879 -7.7519,-4.5037 -10.7832,-8.05469 -3.0313,-3.6376 -5.3681,-8.09768 -7.0137,-13.38086 -1.6456,-5.36978 -2.4687,-11.60505 -2.4687,-18.70703 0,-7.01536 0.8231,-13.16604 2.4687,-18.44921 1.6456,-5.36979 3.9824,-9.78563 7.0137,-13.25 3.0313,-3.55099 6.626,-6.1936 10.7832,-7.92579 4.2439,-1.8188 8.9636,-2.72851 14.1602,-2.72851 z m -538.1035,41.05273 15.7187,0 0,26.24414 c -1.8188,1.99202 -3.9825,4.06914 -6.4941,6.23438 -2.4251,2.07862 -5.11,3.98461 -8.0547,5.71679 -2.9448,1.73219 -6.1067,3.16119 -9.4844,4.28711 -3.2912,1.03932 -6.7127,1.5586 -10.2637,1.5586 -8.1413,0 -14.5497,-1.64439 -19.2265,-4.93555 -4.677,-3.37777 -7.0157,-8.0552 -7.0157,-14.03125 0,-8.05468 3.6812,-14.24765 11.043,-18.57812 7.4484,-4.33048 18.7073,-6.4961 33.7774,-6.4961 z m 209.9414,0 15.7187,0 0,26.24414 c -1.8188,1.99202 -3.9825,4.06914 -6.4941,6.23438 -2.4251,2.07862 -5.11,3.98461 -8.0547,5.71679 -2.9447,1.73219 -6.1067,3.16119 -9.4844,4.28711 -3.2912,1.03932 -6.7127,1.5586 -10.2637,1.5586 -8.1413,0 -14.5497,-1.64439 -19.2265,-4.93555 -4.677,-3.37777 -7.0156,-8.0552 -7.0156,-14.03125 0,-8.05468 3.6811,-14.24765 11.0429,-18.57812 7.4484,-4.33048 18.7073,-6.4961 33.7774,-6.4961 z m 121.08,32.86914 0,18.9668 18.9668,0 0,-18.9668 -18.9668,0 z" />
    </g>
  </g>
</svg>
